<svg xmlns="http://www.w3.org/2000/svg" xmlns:xlink="http://www.w3.org/1999/xlink" width="650" height="350" viewBox="0 0 650 350">
  <defs>
    <clipPath id="clip-path">
      <rect id="Rectangle_2" data-name="Rectangle 2" width="650" height="350"/>
    </clipPath>
  </defs>
  <g id="Custom_Size_1" data-name="Custom Size – 1" clip-path="url(#clip-path)">
    <rect width="650" height="350" fill="#fff"/>
    <g id="Custom_Size_1-2" data-name="Custom Size – 1" clip-path="url(#clip-path)">
      <rect id="Rectangle_1" data-name="Rectangle 1" width="650" height="350" fill="#fff"/>
      <g id="Group_55720" data-name="Group 55720" transform="translate(0 -0.001)">
        <g id="Group_55719" data-name="Group 55719" transform="translate(0)">
          <path id="Path_73088" data-name="Path 73088" d="M1453.05,904.916c23.973-58.206,34.263-144.068.053-199.689-23.064-37.5-58.661-48.905-97.563-59.732-33.053-9.2-50.875-37.331-77.224-57.155-37.385-28.127-86.514-32.541-131.328-32.608-54.336-.081-117.069,5.27-162.178,40-25.625,19.73-46.81,48.63-45.539,83.088,1.115,30.24,15.02,56.522-14.213,76.962-24.3,16.991-46.235,30.94-55.808,61.733-9.013,28.987-5.125,66.405,18.433,87.179Z" transform="translate(-850.743 -555.731)" fill="#dde8fd"/>
          <g id="Group_55678" data-name="Group 55678" transform="translate(270.495 32.523)">
            <rect id="Rectangle_7249" data-name="Rectangle 7249" width="128.736" height="170.963" fill="#fff"/>
            <rect id="Rectangle_7250" data-name="Rectangle 7250" width="116.144" height="158.66" transform="translate(6.387 6.221)" fill="#fff"/>
            <rect id="Rectangle_7251" data-name="Rectangle 7251" width="28.379" height="26.845" transform="translate(85.524 14.642)" fill="#fff"/>
            <rect id="Rectangle_7252" data-name="Rectangle 7252" width="25.879" height="71.396" transform="translate(19.321 88.06)" fill="#fff"/>
            <g id="Group_55669" data-name="Group 55669" transform="translate(24.302 90.379)">
              <path id="Path_73089" data-name="Path 73089" d="M1866.26,1065.967v11.7h-10.552v-11.7a1.862,1.862,0,0,1,1.91-1.807h6.733A1.862,1.862,0,0,1,1866.26,1065.967Z" transform="translate(-1853.026 -1049.396)" fill="#93b3f4"/>
              <rect id="Rectangle_7253" data-name="Rectangle 7253" width="15.916" height="3.012" transform="translate(0 50.106)" fill="#060632"/>
              <rect id="Rectangle_7254" data-name="Rectangle 7254" width="8.801" height="1.665" transform="translate(3.558 63.878)" fill="#060632"/>
              <rect id="Rectangle_7255" data-name="Rectangle 7255" width="4.283" height="11.593" transform="translate(5.817 53.118)" fill="#060632"/>
              <g id="Group_55663" data-name="Group 55663" transform="translate(2.681 14.764)">
                <path id="Path_73090" data-name="Path 73090" d="M1864.35,1064.16h-6.733a1.863,1.863,0,0,0-1.91,1.807v34.1a1.862,1.862,0,0,0,1.91,1.807h6.733a1.862,1.862,0,0,0,1.91-1.807v-34.1A1.862,1.862,0,0,0,1864.35,1064.16Zm1.348,35.909a1.314,1.314,0,0,1-1.348,1.276h-6.733a1.315,1.315,0,0,1-1.348-1.276v-34.1a1.317,1.317,0,0,1,1.348-1.275h6.733a1.315,1.315,0,0,1,1.348,1.275Z" transform="translate(-1855.707 -1064.16)" fill="#060632"/>
              </g>
              <rect id="Rectangle_7256" data-name="Rectangle 7256" width="2.177" height="2.679" transform="translate(6.87 12.355)" fill="#060632"/>
              <rect id="Rectangle_7257" data-name="Rectangle 7257" width="0.351" height="13.085" transform="translate(7.783)" fill="#060632"/>
              <g id="Group_55664" data-name="Group 55664" transform="translate(4.715 17.957)">
                <rect id="Rectangle_7258" data-name="Rectangle 7258" width="4.514" height="0.394" transform="translate(1.001)" fill="#060632"/>
                <rect id="Rectangle_7259" data-name="Rectangle 7259" width="4.514" height="0.394" transform="translate(1.001 1.234)" fill="#060632"/>
                <rect id="Rectangle_7260" data-name="Rectangle 7260" width="4.514" height="0.394" transform="translate(1.001 2.566)" fill="#060632"/>
                <rect id="Rectangle_7261" data-name="Rectangle 7261" width="4.514" height="0.394" transform="translate(1.001 3.751)" fill="#060632"/>
                <rect id="Rectangle_7262" data-name="Rectangle 7262" width="6.516" height="0.394" transform="translate(0 4.885)" fill="#060632"/>
              </g>
              <g id="Group_55665" data-name="Group 55665" transform="translate(4.715 24.124)">
                <rect id="Rectangle_7263" data-name="Rectangle 7263" width="4.514" height="0.394" transform="translate(1.001)" fill="#060632"/>
                <rect id="Rectangle_7264" data-name="Rectangle 7264" width="4.514" height="0.395" transform="translate(1.001 1.234)" fill="#060632"/>
                <rect id="Rectangle_7265" data-name="Rectangle 7265" width="4.514" height="0.394" transform="translate(1.001 2.566)" fill="#060632"/>
                <rect id="Rectangle_7266" data-name="Rectangle 7266" width="4.514" height="0.394" transform="translate(1.001 3.751)" fill="#060632"/>
                <rect id="Rectangle_7267" data-name="Rectangle 7267" width="6.516" height="0.394" transform="translate(0 4.885)" fill="#060632"/>
              </g>
              <g id="Group_55666" data-name="Group 55666" transform="translate(4.715 30.293)">
                <rect id="Rectangle_7268" data-name="Rectangle 7268" width="4.514" height="0.394" transform="translate(1.001)" fill="#060632"/>
                <rect id="Rectangle_7269" data-name="Rectangle 7269" width="4.514" height="0.394" transform="translate(1.001 1.234)" fill="#060632"/>
                <rect id="Rectangle_7270" data-name="Rectangle 7270" width="4.514" height="0.394" transform="translate(1.001 2.566)" fill="#060632"/>
                <rect id="Rectangle_7271" data-name="Rectangle 7271" width="4.514" height="0.394" transform="translate(1.001 3.751)" fill="#060632"/>
                <rect id="Rectangle_7272" data-name="Rectangle 7272" width="6.516" height="0.394" transform="translate(0 4.885)" fill="#060632"/>
              </g>
              <g id="Group_55667" data-name="Group 55667" transform="translate(4.715 36.584)">
                <rect id="Rectangle_7273" data-name="Rectangle 7273" width="4.514" height="0.394" transform="translate(1.001)" fill="#060632"/>
                <rect id="Rectangle_7274" data-name="Rectangle 7274" width="4.514" height="0.394" transform="translate(1.001 1.234)" fill="#060632"/>
                <rect id="Rectangle_7275" data-name="Rectangle 7275" width="4.514" height="0.394" transform="translate(1.001 2.566)" fill="#060632"/>
                <rect id="Rectangle_7276" data-name="Rectangle 7276" width="4.514" height="0.394" transform="translate(1.001 3.751)" fill="#060632"/>
                <rect id="Rectangle_7277" data-name="Rectangle 7277" width="6.516" height="0.394" transform="translate(0 4.885)" fill="#060632"/>
              </g>
              <g id="Group_55668" data-name="Group 55668" transform="translate(4.715 42.545)">
                <rect id="Rectangle_7278" data-name="Rectangle 7278" width="4.514" height="0.394" transform="translate(1.001)" fill="#060632"/>
                <rect id="Rectangle_7279" data-name="Rectangle 7279" width="4.514" height="0.394" transform="translate(1.001 1.234)" fill="#060632"/>
                <rect id="Rectangle_7280" data-name="Rectangle 7280" width="4.514" height="0.394" transform="translate(1.001 2.566)" fill="#060632"/>
                <rect id="Rectangle_7281" data-name="Rectangle 7281" width="4.514" height="0.394" transform="translate(1.001 3.751)" fill="#060632"/>
                <rect id="Rectangle_7282" data-name="Rectangle 7282" width="6.516" height="0.394" transform="translate(0 4.885)" fill="#060632"/>
              </g>
            </g>
            <path id="Path_73091" data-name="Path 73091" d="M2084.15,748.939c5.1-3.21,4.706,4.366,8.6,5.355,7.125,1.808,2.031,5.108,2.62,8.24,1.235,6.55-6.5,1.016-10.462.307-4.859-.867-8.006-5.478-4.5-8.257C2082.13,753.225,2081.84,750.4,2084.15,748.939Z" transform="translate(-1988.044 -728.573)" fill="#3662c1"/>
            <path id="Path_73092" data-name="Path 73092" d="M2125.48,746.082c1.649-.416.83,1.549,1.765,2.138,1.708,1.077.053,1.519-.086,2.394-.292,1.831-1.809-.284-2.788-.8-1.2-.638-1.6-2.12-.409-2.554C2124.54,747.042,2124.73,746.271,2125.48,746.082Z" transform="translate(-2019.679 -727.021)" fill="#3662c1"/>
            <g id="Group_55673" data-name="Group 55673" transform="translate(85.157 14.646)">
              <rect id="Rectangle_7283" data-name="Rectangle 7283" width="28.379" height="26.845" transform="translate(0.367 34.196)" fill="#fff"/>
              <g id="Group_55670" data-name="Group 55670" transform="translate(0 33.846)">
                <path id="Path_73093" data-name="Path 73093" d="M2088.05,882.475h-29.119V854.93h29.119Zm-28.379-.7h27.638V855.63h-27.638Z" transform="translate(-2058.931 -854.93)" fill="#e75755"/>
              </g>
              <g id="Group_55671" data-name="Group 55671">
                <path id="Path_73094" data-name="Path 73094" d="M2088.05,757.477h-29.119V729.932h29.119Zm-28.379-.7h27.638V730.632h-27.638Z" transform="translate(-2058.931 -729.932)" fill="#e75755"/>
              </g>
              <g id="Group_55672" data-name="Group 55672" transform="translate(5.386 39.445)">
                <path id="Path_73095" data-name="Path 73095" d="M2098.6,897.137a3.107,3.107,0,0,1,3.123-2.1,2.943,2.943,0,0,1,2.683,2.913c0,1.4-1.2,2.162-2.683,2.162S2097.95,899.105,2098.6,897.137Z" transform="translate(-2092.554 -889.777)" fill="#e75755"/>
                <path id="Path_73096" data-name="Path 73096" d="M2098.54,883.7a1.554,1.554,0,0,1,1.562-1.05,1.472,1.472,0,0,1,1.341,1.456,1.1,1.1,0,0,1-.416.823,1.232,1.232,0,0,1-.925.258C2099.37,885.188,2098.22,884.684,2098.54,883.7Z" transform="translate(-2092.554 -880.744)" fill="#e75755"/>
                <path id="Path_73097" data-name="Path 73097" d="M2118.21,877.457a2.72,2.72,0,0,1,2.733-1.838,2.575,2.575,0,0,1,2.348,2.554,1.925,1.925,0,0,1-.729,1.44,2.158,2.158,0,0,1-1.619.452C2119.65,880.06,2117.64,879.179,2118.21,877.457Z" transform="translate(-2106.559 -875.616)" fill="#e75755"/>
                <path id="Path_73098" data-name="Path 73098" d="M2125.86,903.083a1.158,1.158,0,0,1,1.164-.783,1.1,1.1,0,0,1,1,1.086.818.818,0,0,1-.31.613.919.919,0,0,1-.689.192C2126.47,904.192,2125.62,903.813,2125.86,903.083Z" transform="translate(-2112.059 -895.073)" fill="#e75755"/>
                <path id="Path_73099" data-name="Path 73099" d="M2087.16,917.841a1.211,1.211,0,0,1,1.164-1.041c.552,0,1,.746,1,1.438a.92.92,0,0,1-.246.746,1.033,1.033,0,0,1-.754.321,1.25,1.25,0,0,1-.961-.463,1.109,1.109,0,0,1-.2-1Z" transform="translate(-2084.434 -905.648)" fill="#e75755"/>
                <path id="Path_73100" data-name="Path 73100" d="M2120.56,921.05a1.758,1.758,0,0,1,1.9-.411,1.388,1.388,0,0,1,.979,1.637c-.2.591-.921.73-1.686.5S2119.95,921.782,2120.56,921.05Z" transform="translate(-2108.176 -908.37)" fill="#e75755"/>
                <path id="Path_73101" data-name="Path 73101" d="M2077.95,894.139a1.76,1.76,0,0,1,1.9-.411,1.387,1.387,0,0,1,.979,1.638c-.2.591-.921.729-1.686.5S2077.34,894.871,2077.95,894.139Z" transform="translate(-2077.766 -888.745)" fill="#e75755"/>
              </g>
            </g>
            <g id="Group_55674" data-name="Group 55674" transform="translate(17 17.421)">
              <rect id="Rectangle_7284" data-name="Rectangle 7284" width="54.016" height="1.583" rx="0.791" transform="translate(0)" fill="#3662c1"/>
              <path id="Path_73102" data-name="Path 73102" d="M1874.01,759.956h-52.343a.817.817,0,0,1-.836-.791h0a.817.817,0,0,1,.836-.792h52.343a.817.817,0,0,1,.837.792h0a.817.817,0,0,1-.837.791Z" transform="translate(-1820.831 -753.446)" fill="#3662c1"/>
              <path id="Path_73103" data-name="Path 73103" d="M1874.01,778.15h-52.343a.817.817,0,0,1-.836-.791h0a.817.817,0,0,1,.836-.791h52.343a.817.817,0,0,1,.837.791h0a.817.817,0,0,1-.837.791Z" transform="translate(-1820.831 -766.714)" fill="#3662c1"/>
              <path id="Path_73104" data-name="Path 73104" d="M1874.01,796.344h-52.343a.817.817,0,0,1-.836-.791h0a.817.817,0,0,1,.836-.791h52.343a.817.817,0,0,1,.837.791h0a.817.817,0,0,1-.837.791Z" transform="translate(-1820.831 -779.982)" fill="#3662c1"/>
              <path id="Path_73105" data-name="Path 73105" d="M1874.01,814.538h-52.343a.817.817,0,0,1-.836-.791h0a.817.817,0,0,1,.836-.791h52.343a.817.817,0,0,1,.837.791h0a.817.817,0,0,1-.837.791Z" transform="translate(-1820.831 -793.25)" fill="#3662c1"/>
            </g>
            <g id="Group_55675" data-name="Group 55675" transform="translate(17 50.674)">
              <path id="Path_73106" data-name="Path 73106" d="M1874.01,864.574h-52.343a.817.817,0,0,1-.836-.791h0a.817.817,0,0,1,.836-.791h52.343a.817.817,0,0,1,.837.791h0a.817.817,0,0,1-.837.791Z" transform="translate(-1820.831 -862.992)" fill="#3662c1"/>
              <path id="Path_73107" data-name="Path 73107" d="M1874.01,882.768h-52.343a.817.817,0,0,1-.836-.791h0a.817.817,0,0,1,.836-.791h52.343a.817.817,0,0,1,.837.791h0a.817.817,0,0,1-.837.791Z" transform="translate(-1820.831 -876.258)" fill="#3662c1"/>
              <path id="Path_73108" data-name="Path 73108" d="M1874.01,900.961h-52.343a.817.817,0,0,1-.836-.792h0a.817.817,0,0,1,.836-.791h52.343a.817.817,0,0,1,.837.791h0a.817.817,0,0,1-.837.792Z" transform="translate(-1820.831 -889.526)" fill="#3662c1"/>
              <path id="Path_73109" data-name="Path 73109" d="M1874.01,919.155h-52.343a.817.817,0,0,1-.836-.791h0a.817.817,0,0,1,.836-.791h52.343a.817.817,0,0,1,.837.791h0a.817.817,0,0,1-.837.791Z" transform="translate(-1820.831 -902.793)" fill="#3662c1"/>
              <path id="Path_73110" data-name="Path 73110" d="M1874.01,937.348h-52.343a.817.817,0,0,1-.836-.791h0a.817.817,0,0,1,.836-.791h52.343a.817.817,0,0,1,.837.791h0a.817.817,0,0,1-.837.791Z" transform="translate(-1820.831 -916.061)" fill="#3662c1"/>
            </g>
            <g id="Group_55676" data-name="Group 55676" transform="translate(58.142 128.049)">
              <path id="Path_73111" data-name="Path 73111" d="M2017.75,1150.33h-52.343a.817.817,0,0,1-.836-.792h0a.817.817,0,0,1,.836-.791h52.343a.817.817,0,0,1,.837.791h0a.817.817,0,0,1-.837.792Z" transform="translate(-1964.571 -1148.747)" fill="#3662c1"/>
              <path id="Path_73112" data-name="Path 73112" d="M2017.75,1168.52h-52.343a.817.817,0,0,1-.836-.791h0a.817.817,0,0,1,.836-.792h52.343a.817.817,0,0,1,.837.792h0a.817.817,0,0,1-.837.791Z" transform="translate(-1964.571 -1162.013)" fill="#3662c1"/>
              <path id="Rectangle_7285" data-name="Rectangle 7285" d="M.836,0H53.18a.814.814,0,0,1,.836.791h0a.814.814,0,0,1-.836.791H.836A.814.814,0,0,1,0,.791H0A.814.814,0,0,1,.836,0Z" transform="translate(0.004 9.853)" fill="#3662c1"/>
              <path id="Path_73113" data-name="Path 73113" d="M2017.75,1204.91h-52.343a.817.817,0,0,1-.836-.792h0a.817.817,0,0,1,.836-.791h52.343a.817.817,0,0,1,.837.791h0a.817.817,0,0,1-.837.792Z" transform="translate(-1964.571 -1188.547)" fill="#3662c1"/>
              <path id="Path_73114" data-name="Path 73114" d="M2017.75,1223.1h-52.343a.817.817,0,0,1-.836-.791h0a.817.817,0,0,1,.836-.791h52.343a.817.817,0,0,1,.837.791h0a.817.817,0,0,1-.837.791Z" transform="translate(-1964.571 -1201.816)" fill="#3662c1"/>
            </g>
            <g id="Group_55677" data-name="Group 55677" transform="translate(69.412 90.228)">
              <path id="Path_73115" data-name="Path 73115" d="M2003.92,1022.73c0-7.541,6.463-13.655,14.435-13.655s14.435,6.113,14.435,13.655-6.463,13.655-14.435,13.655-14.435-6.113-14.435-13.655Z" transform="translate(-2003.92 -1009.075)" fill="#fa7269"/>
              <path id="Path_73116" data-name="Path 73116" d="M2039.75,1032.275h-7.3v-6.905h-4.936v6.905h-7.3v4.67h7.3v6.905h4.936v-6.905h7.3Z" transform="translate(-2015.545 -1020.953)" fill="#fff"/>
            </g>
          </g>
          <path id="Path_73117" data-name="Path 73117" d="M1510.86,1163.718c0,.036-.013.056-.034.061.007-.028.011-.049.014-.065C1510.86,1163.661,1510.87,1163.661,1510.86,1163.718Z" transform="translate(-1311.985 -984.417)" fill="#6d89cf"/>
          <g id="Group_55685" data-name="Group 55685" transform="translate(256.489 254.704)">
            <g id="Group_55680" data-name="Group 55680" transform="translate(53.009 37.455)">
              <path id="Path_73118" data-name="Path 73118" d="M1930.59,1545.023s-6.938-7.656-.427-12.521c0,0,4.756-2.723,8.633-2.5,0,0-5.494,8.715-3.717,9.583s5.382-10.129,5.382-10.129,10.822-.993,14.3.59c0,0-9.251,7.162-7.3,7.587s11.941-6.6,11.941-6.6,10.072,1.621,9.535,7.433-4.007,7.606-5.533,7.452-10.448-3.376-10.642-2.194,5.177,5.046,8.938,5.226c0,0-7.1,7.408-11.82,5.27s-5.122-5.527-8.064-6.8-5.453-1.268-4.238.028,6.539,2.554,8.221,5.371,3.192,4.714-1.691,4.019-12.819-4.074-13.168-7.946Z" transform="translate(-1918.866 -1529.146)" fill="#93b3f4"/>
              <g id="Group_55679" data-name="Group 55679" transform="translate(0 9.424)">
                <path id="Path_73119" data-name="Path 73119" d="M1956.83,1564.007s-27.356-1-33.4,6.4a18.769,18.769,0,0,1-5.447,7.232l-.641,1.652s4.74-4.73,6.437-5.014C1923.78,1574.28,1921.12,1565.114,1956.83,1564.007Z" transform="translate(-1911.7 -1563.962)" fill="#93b3f4"/>
                <path id="Path_73120" data-name="Path 73120" d="M1903.92,1612.733a15.99,15.99,0,0,0-6.28,11.446l1.066.094s1.875-7.589,5.265-10.558S1903.92,1612.733,1903.92,1612.733Z" transform="translate(-1897.64 -1599.051)" fill="#93b3f4"/>
              </g>
            </g>
            <g id="Group_55682" data-name="Group 55682" transform="translate(0 16.661)">
              <path id="Path_73121" data-name="Path 73121" d="M1752.92,1479.4s11.037-5.846,5.886-13.781c0,0-4.121-4.873-8.535-6.125,0,0,2.354,11.833,0,12.108s-1.619-13.364-1.619-13.364-11.625-5.29-16.188-4.873c0,0,7.211,11.554,4.857,11.276s-10.448-11.972-10.448-11.972-11.92-2.089-13.833,4.594,1.177,10.022,2.943,10.439,13.1.284,12.8,1.671-7.947,3.619-12.214,2.365c0,0,4.709,11,10.89,10.44s8.094-4.176,11.92-4.454,6.622.7,4.709,1.671-8.388.32-11.478,2.8-5.592,4.016.147,5.13,16.04.418,18.1-3.758Z" transform="translate(-1712.437 -1452.364)" fill="#93b3f4"/>
              <g id="Group_55681" data-name="Group 55681" transform="translate(6.042 6.988)">
                <path id="Path_73122" data-name="Path 73122" d="M1733.56,1478.18s30.9,9.466,34.435,20.046a21.3,21.3,0,0,0,2.943,10.162v2.088s-3.238-7.1-5-8.074C1765.94,1502.406,1772.85,1493.22,1733.56,1478.18Z" transform="translate(-1733.56 -1478.18)" fill="#93b3f4"/>
                <path id="Path_73123" data-name="Path 73123" d="M1860.46,1586.246a18.375,18.375,0,0,1,2.048,15.18l-1.226-.311s1.19-9.176-1.3-13.795S1860.46,1586.246,1860.46,1586.246Z" transform="translate(-1823.083 -1556.033)" fill="#93b3f4"/>
              </g>
            </g>
            <g id="Group_55684" data-name="Group 55684" transform="translate(48.468 0)">
              <path id="Path_73124" data-name="Path 73124" d="M1891.35,1426.454s-14.549-7.707-7.759-18.162c0,0,5.432-6.422,11.251-8.074,0,0-3.1,15.6,0,15.964s2.134-17.615,2.134-17.615,15.325-6.973,21.338-6.422c0,0-9.5,15.23-6.4,14.864s13.773-15.78,13.773-15.78,15.713-2.753,18.234,6.054-1.552,13.212-3.88,13.762-17.265.367-16.876,2.2,10.475,4.771,16.1,3.122c0,0-6.208,14.5-14.355,13.763s-10.669-5.505-15.712-5.872-8.729.917-6.208,2.2,11.057.421,15.131,3.7,7.371,5.3-.194,6.763-21.144.551-23.86-4.955Z" transform="translate(-1881.786 -1390.82)" fill="#bed2fa"/>
              <g id="Group_55683" data-name="Group 55683" transform="translate(1.883 9.211)">
                <path id="Path_73125" data-name="Path 73125" d="M1950.92,1424.85s-40.736,12.478-45.392,26.423a28.072,28.072,0,0,1-3.88,13.4v2.753s4.268-9.358,6.6-10.643C1908.24,1456.776,1899.13,1444.668,1950.92,1424.85Z" transform="translate(-1897.842 -1424.85)" fill="#bed2fa"/>
                <path id="Path_73126" data-name="Path 73126" d="M1892.16,1567.292s-6.282,9.024-2.7,20.01l1.616-.411s-1.569-12.1,1.718-18.185S1892.16,1567.292,1892.16,1567.292Z" transform="translate(-1888.356 -1527.474)" fill="#bed2fa"/>
              </g>
            </g>
            <path id="Path_73127" data-name="Path 73127" d="M1842.43,1661.179c15.74,0,28.5-12.07,28.5-26.959h-57C1813.93,1649.109,1826.69,1661.179,1842.43,1661.179Z" transform="translate(-1784.884 -1568.316)" fill="#bed2fa"/>
            <path id="Path_73128" data-name="Path 73128" d="M1870.34,1729.89h-57.784a3.425,3.425,0,0,1,3.516-3.326h50.753a3.425,3.425,0,0,1,3.516,3.326Z" transform="translate(-1783.901 -1635.656)" fill="#bed2fa"/>
            <rect id="Rectangle_7286" data-name="Rectangle 7286" width="58.583" height="0.827" transform="translate(28.112 65.903)" fill="#93b3f4"/>
          </g>
          <g id="Group_55690" data-name="Group 55690" transform="translate(134.071 193.307)">
            <path id="Path_73129" data-name="Path 73129" d="M1319.08,1224.233a242.654,242.654,0,0,0-3.6-33.67c-2.583-13.149-4.908-20.716-4.935-20.792-.34-1.157-5.256-5.835-16.184-5.691s-9.892,6.279-9.892,6.279h0a1.753,1.753,0,0,0,.078.546c.1.316,10.137,32.334,9.7,73.675-.006.58-.08,1.583-.033,2.251,0,0,25.326.576,25.332,0C1320.43,1243.218,1320,1233.2,1319.08,1224.233Z" transform="translate(-1284.443 -1164.077)" fill="#93b3f4"/>
            <path id="Path_73130" data-name="Path 73130" d="M1329.31,1244.372c-.007.575-.353,1.041-.774,1.041h-.01c-.421-.009-.756-.473-.762-1.041h-21.7c-.007.575-.353,1.041-.774,1.041h-.01c-.428-.009-.769-.485-.764-1.068a254.285,254.285,0,0,0-1.8-32.635c-2.885-24.321-8.219-40.581-8.3-40.8a1.794,1.794,0,0,1-.078-.546s-1.036-6.134,9.891-6.28,15.846,4.535,16.186,5.691c.02.061,1.337,4.344,3.087,12.044.58,2.554,1.206,5.476,1.849,8.746a242.96,242.96,0,0,1,3.6,33.67C1329.87,1233.2,1330.19,1240.758,1329.31,1244.372Z" transform="translate(-1291.49 -1164.076)" fill="#bed2fa"/>
            <path id="Path_73131" data-name="Path 73131" d="M1324.33,1448h85.093s-1.982-7.059-51.262-6.008C1323.29,1442.732,1324.33,1448,1324.33,1448Z" transform="translate(-1312.916 -1366.663)" fill="#bed2fa"/>
            <g id="Group_55686" data-name="Group 55686" transform="translate(4.495 82.427)">
              <path id="Path_73132" data-name="Path 73132" d="M1300.15,1541.139c9.866-43.965,7.329-70.946,7.317-71.282-.025-.677,1.393-1.291,2.155-1.313s4.177-.2,4.571.378c.517.757,2.5,34-12.2,72.216Z" transform="translate(-1300.15 -1468.502)" fill="#93b3f4"/>
            </g>
            <g id="Group_55687" data-name="Group 55687" transform="translate(69.522 82.427)">
              <path id="Path_73133" data-name="Path 73133" d="M1541.74,1541.139c-9.866-43.965-7.329-70.946-7.317-71.282.025-.677-1.392-1.291-2.155-1.313s-4.177-.2-4.571.378c-.516.757-2.5,34,12.2,72.216Z" transform="translate(-1527.315 -1468.502)" fill="#93b3f4"/>
            </g>
            <g id="Group_55688" data-name="Group 55688" transform="translate(85.261 82.427)">
              <path id="Path_73134" data-name="Path 73134" d="M1596.74,1541.139c-9.866-43.965-7.329-70.946-7.317-71.282.025-.677-1.392-1.291-2.155-1.313s-4.177-.2-4.571.378c-.516.757-2.5,34,12.2,72.216Z" transform="translate(-1582.315 -1468.502)" fill="#93b3f4"/>
            </g>
            <g id="Group_55689" data-name="Group 55689" transform="translate(20.34 82.427)">
              <path id="Path_73135" data-name="Path 73135" d="M1355.52,1541.139c9.866-43.965,7.329-70.946,7.317-71.282-.025-.677,1.392-1.291,2.155-1.313s4.177-.2,4.571.378c.516.757,2.5,34-12.2,72.216Z" transform="translate(-1355.52 -1468.502)" fill="#93b3f4"/>
            </g>
            <rect id="Rectangle_7287" data-name="Rectangle 7287" width="88.579" height="4.077" rx="2.039" transform="translate(9.725 79.509)" fill="#93b3f4"/>
          </g>
          <g id="Group_55694" data-name="Group 55694" transform="translate(160.082 128.049)">
            <path id="Path_73136" data-name="Path 73136" d="M1395.04,927.214c-.247-.549-3.129-6.381-12.914-3.2,0,0,4.966-1.183,6.586.494,0,0-4.221-1.269-6.537.473s-2.1,6.663-1.531,8.1,3.9,5.539,5.732,5.328a5.648,5.648,0,0,0,2.025-.73,21.916,21.916,0,0,0-.411,2.66c-.826,8.879,6.108,14.757,9.044,12.764,1.883-1.276,3.841,1.892,3.841,1.892l14.03-22.929S1401.52,920.151,1395.04,927.214Z" transform="translate(-1378.88 -923.071)" fill="#0b0754"/>
            <path id="Path_73137" data-name="Path 73137" d="M1467.8,1061.889c-13.288,5.618-23.277-14.211-22.41-14.414,1.328-1.419,2.7-6.486,1.725-13.777l.689.044,11.556.809s.18,3.391.579,6.554a17.857,17.857,0,0,0,1.094,4.927,11.485,11.485,0,0,0,2.648.6C1463.88,1046.839,1471.35,1060.395,1467.8,1061.889Z" transform="translate(-1425.327 -1003.746)" fill="#fc9290"/>
            <path id="Path_73138" data-name="Path 73138" d="M1761.76,1705.553h-23.287a11.483,11.483,0,0,1,.658-5.9c1.166-2.444,1.91-3.114.644-5.94,1.48,1.441,5.8,2.483,9.168,2.055.412.633,2.663,4.018,4.041,4.954C1754.5,1701.75,1761.29,1701.381,1761.76,1705.553Z" transform="translate(-1634.459 -1485.045)" fill="#a83f3f"/>
            <path id="Path_73139" data-name="Path 73139" d="M1618.51,1702.278h-23.287a11.481,11.481,0,0,1,.658-5.9c1.165-2.444,3.436-4.078,4.1-6.9,1.48,1.441,2.341,3.44,5.708,3.012.413.633,2.663,4.018,4.041,4.955C1611.26,1698.476,1618.04,1698.107,1618.51,1702.278Z" transform="translate(-1532.215 -1481.953)" fill="#a83f3f"/>
            <g id="Group_55691" data-name="Group 55691" transform="translate(34.874 44.161)">
              <path id="Path_73140" data-name="Path 73140" d="M1575.83,1089.452l2.714,3.563s-1.186.966-3.079,2.5c-.572.456-.917.7-.917.7-1.529,1.215-3.409,2.626-5.451,4.173l-.023.027c-3.564,2.595-7.621,5.45-11.305,7.656-.333.195-.664.386-.987.568a34.4,34.4,0,0,1-5.975,2.79,4.5,4.5,0,0,1-.58.154c-4.885,1.243-14.745-.378-24.416-3.169-1.336-.378-2.652-.792-3.938-1.182a98.71,98.71,0,0,1-12.851-4.968,38.262,38.262,0,0,1-5.519-3.069,15.172,15.172,0,0,1-1.409-1.035c-7.85-6.081-4.159-11.984-2.667-11.994a33.529,33.529,0,0,1,7.5,1.177c4.763,1.215,10.628,3.144,16.377,5.154,3.16,1.094,6.3,2.214,9.242,3.189,1.762.622,3.442,1.182,4.991,1.686a50.567,50.567,0,0,0,7.154,1.892,17.834,17.834,0,0,0,5.727-.858c.674-.172,1.385-.368,2.123-.577,4.095-1.176,9.009-2.9,13.279-4.5,2.1-.777,4.058-1.538,5.678-2.176C1574.11,1090.143,1575.83,1089.452,1575.83,1089.452Z" transform="translate(-1497.247 -1086.17)" fill="#fc9290"/>
            </g>
            <path id="Path_73141" data-name="Path 73141" d="M1392.81,1338.424s-5.225,15.4,6.434,22.711c15.622,9.791,58.937,1.445,63.88,6.447,1.252,1.267-2.534,1.907-4.67,20.01-3.071,26.036-5.56,40.6-5.56,40.6a6.8,6.8,0,0,0,3.814,4.514,8.647,8.647,0,0,0,4.88.384s31.814-66.075,28.645-75.241c-5.488-15.876-35.873-14.319-71.092-23.7C1397.63,1328.416,1392.81,1338.424,1392.81,1338.424Z" transform="translate(-1386.995 -1221.55)" fill="#9e332e"/>
            <path id="Path_73142" data-name="Path 73142" d="M1406.82,1346.155c15.466-1.353,57.669-2.041,66.8,3.891,11.233,7.3,26.5,90.786,26.5,90.786a7.785,7.785,0,0,1-3.728,1.12c-2.375.22-7.534-1.219-7.534-1.219s-25.1-37.6-26.6-47.008-.733-17.773-4.978-18.054-62.57,6.077-67.549-9.023c-3.89-11.8.772-23.207.772-23.207S1392.55,1347.4,1406.82,1346.155Z" transform="translate(-1384.522 -1229.617)" fill="#e75755"/>
            <path id="Path_73143" data-name="Path 73143" d="M1429.87,1106.8c.957,3.316,1.744,6.284,2.13,8.287,1.78,9.224,3.342,37.374,3.342,37.374-15.8,23.067-59.769,16.129-59.769,16.129-.969-8.744,2.743-28.189,5-45.5.553-4.242,1.018-8.351,1.306-12.144a72.592,72.592,0,0,1,1.191-8.857c3.749-18.494,13.391-20.527,13.391-20.527,4.508,8.282,18.734,10.511,18.734,10.511a43.219,43.219,0,0,0-1.419-10.594,78.016,78.016,0,0,1,9.517,1.658c2.026.7,18.868,7.969,18.868,7.969a16.464,16.464,0,0,1-12.291,15.693Z" transform="translate(-1375.415 -1038.59)" fill="#6d89cf"/>
            <path id="Path_73144" data-name="Path 73144" d="M1465.52,1034.684s.178,3.388.579,6.554c-6.336.562-10.377-4.5-12.135-7.362Z" transform="translate(-1431.478 -1003.873)" fill="#ea8888"/>
            <path id="Path_73145" data-name="Path 73145" d="M1459.9,984.05s-14.909,1.96-16.057-6.841-3.845-14.473,5.625-16.1,11.761,1.513,12.9,4.368S1463.75,983.313,1459.9,984.05Z" transform="translate(-1423.364 -950.487)" fill="#fc9290"/>
            <path id="Path_73146" data-name="Path 73146" d="M1450.84,956.282c-2.651-2.381-4.321-1.6-5.2-.689a10.865,10.865,0,0,0-13.165,3.584,16.464,16.464,0,0,1-4.53,10.607s2.928,1.276,9.008-.976a10.579,10.579,0,0,0,4.656-3.907,33.022,33.022,0,0,1-5.1,7.623c7.074-4.145,8.811-14.359,8.976-15.436a11.457,11.457,0,0,1,3.788,3.731c1.034,2.155,1.966,6.73,3.367,6.41C1452.64,967.228,1454.81,959.852,1450.84,956.282Z" transform="translate(-1412.91 -946.134)" fill="#0b0754"/>
            <path id="Path_73147" data-name="Path 73147" d="M1771.79,1076.068a13.9,13.9,0,0,0,2.06-2.166c.759-1.077,1.063-2.156,2.506-3.089s3.038-3.376,3.266-2.946-.76,3.089-.684,3.377,4.1,1.11,5.62.7,5.316-1.561,5.24-.843-4.1,4.741-5.392,5.46-5.164.5-6.683,1.005a11.257,11.257,0,0,0-3.22,2.066Z" transform="translate(-1658.327 -1028.625)" fill="#fc9290"/>
            <path id="Path_73148" data-name="Path 73148" d="M1806.57,1077.708s3.949-3.017,5.671-2.635l-2.835,2.635Z" transform="translate(-1683.158 -1033.895)" fill="#fc9290"/>
            <path id="Path_73149" data-name="Path 73149" d="M1818.6,1085.914l5.974-3.784a3.926,3.926,0,0,0-2.316,0C1821.05,1082.518,1818.6,1085.914,1818.6,1085.914Z" transform="translate(-1691.744 -1038.931)" fill="#fc9290"/>
            <path id="Path_73150" data-name="Path 73150" d="M1427.72,1208.106c-.255-.134-30.556,3-34.292-29.6.553-4.242,1.018-8.351,1.306-12.144a72.525,72.525,0,0,1,1.191-8.856c2.728-.4,6,2.376,7.467,6.5C1406.41,1172.482,1427.64,1207.756,1427.72,1208.106Z" transform="translate(-1388.27 -1094)" fill="#3663bf"/>
            <g id="Group_55692" data-name="Group 55692" transform="translate(10.268 52.516)">
              <path id="Path_73151" data-name="Path 73151" d="M1459.34,1179.9l-1.677,4.094s-1.5-.413-3.894-1.078c-.716-.205-1.123-.344-1.123-.344-1.91-.551-4.186-1.271-6.671-2.047h-.037c-4.242-1.411-8.985-3.071-12.948-4.79q-.533-.236-1.044-.473a34.04,34.04,0,0,1-5.73-3.216,4.286,4.286,0,0,1-.452-.379c-3.766-3.2-7.706-11.9-10.505-21.089-.389-1.267-.744-2.534-1.1-3.767a86.03,86.03,0,0,1-2.6-12.9,33.736,33.736,0,0,1-.29-6.054,13.623,13.623,0,0,1,.149-1.682c1.108-9.541,8.353-9.832,9.174-8.655a29.367,29.367,0,0,1,3.045,6.586c1.521,4.439,3.009,10.142,4.362,15.8.754,3.1,1.471,6.2,2.213,9.066.41,1.737.83,3.373,1.228,4.877a43.952,43.952,0,0,0,2.223,6.706,16.375,16.375,0,0,0,3.884,4.073c.52.442,1.081.9,1.669,1.369,3.274,2.605,7.482,5.563,11.232,8.075,1.834,1.244,3.575,2.379,5.021,3.318C1457.79,1178.914,1459.34,1179.9,1459.34,1179.9Z" transform="translate(-1411.239 -1117.032)" fill="#fc9290"/>
            </g>
            <g id="Group_55693" data-name="Group 55693" transform="translate(55.714 112.619)">
              <path id="Path_73152" data-name="Path 73152" d="M1572.31,1345.327s7.556-2.022,9.355-1.549,7.966,4.335,7.1,5.384-6.3-.628-8.8-.31-4.433,1.484-6.232,1.23a21.839,21.839,0,0,1-3.682-.922Z" transform="translate(-1570.051 -1342.43)" fill="#fc9290"/>
              <path id="Path_73153" data-name="Path 73153" d="M1577.94,1341.884a28.631,28.631,0,0,0,4.748-2.819.3.3,0,0,1,.242-.08.3.3,0,0,1,.217.13c.282.421.546,1.23-.751,2.039A7.32,7.32,0,0,1,1577.94,1341.884Z" transform="translate(-1575.683 -1338.983)" fill="#fc9290"/>
            </g>
            <path id="Path_73154" data-name="Path 73154" d="M1412.49,1107.172s-7.046,3.237-9.5,7.668-2.761,18.578,1.046,36.969a28.556,28.556,0,0,0,18.985-10.128S1420.23,1104.514,1412.49,1107.172Z" transform="translate(-1393.786 -1057.222)" fill="#6d89cf"/>
            <path id="Path_73155" data-name="Path 73155" d="M1444.44,1071.06s-2.569,1.513-2.575,3.754c0,0,3.035,7.845,20.754,9.666C1462.63,1084.483,1446.32,1076.9,1444.44,1071.06Z" transform="translate(-1422.849 -1030.992)" fill="#3663bf"/>
            <path id="Path_73156" data-name="Path 73156" d="M1498.23,1072.934s4.47,7.769,4.342,11.554c0,0,.3-8.6-.33-10.595s-4.4-2.822-4.4-2.822Z" transform="translate(-1462.8 -1030.992)" fill="#3663bf"/>
            <path id="Path_73157" data-name="Path 73157" d="M1487.73,1027.156a5.2,5.2,0,0,0,3.443.863c1.874-.336,1.856-1.724,1.856-1.724a8.858,8.858,0,0,0-2.4,0,20.552,20.552,0,0,0-2.9.862Z" transform="translate(-1455.579 -998.286)" fill="#fff"/>
          </g>
          <g id="Group_55701" data-name="Group 55701" transform="translate(189.055 39.558)">
            <rect id="Rectangle_7288" data-name="Rectangle 7288" width="41.113" height="37.73" rx="13.455" fill="#bed2fa"/>
            <rect id="Rectangle_7289" data-name="Rectangle 7289" width="37.551" height="34.461" rx="12.289" transform="translate(1.781 1.635)" fill="#dde8fd"/>
            <g id="Group_55697" data-name="Group 55697" transform="translate(4.858 4.273)">
              <g id="Group_55695" data-name="Group 55695" transform="translate(14.851)">
                <path id="Path_73158" data-name="Path 73158" d="M1545.48,718.407a.853.853,0,1,1,.852.806.83.83,0,0,1-.852-.806Z" transform="translate(-1545.48 -717.601)" fill="#bed2fa"/>
                <path id="Path_73159" data-name="Path 73159" d="M1569.22,723.665a.878.878,0,0,1,1.159-.314.784.784,0,0,1,.331,1.1.878.878,0,0,1-1.159.313A.784.784,0,0,1,1569.22,723.665Z" transform="translate(-1562.348 -721.721)" fill="#bed2fa"/>
                <path id="Path_73160" data-name="Path 73160" d="M1589.08,740.776a.887.887,0,0,1,1.073.117.772.772,0,0,1,.088,1.018.88.88,0,0,1-1.038.28.8.8,0,0,1-.494-.908.807.807,0,0,1,.371-.507Z" transform="translate(-1576.323 -734.407)" fill="#bed2fa"/>
                <path id="Path_73161" data-name="Path 73161" d="M1598.11,766.413a.807.807,0,1,1-.851.806.83.83,0,0,1,.851-.806Z" transform="translate(-1582.444 -753.196)" fill="#bed2fa"/>
                <path id="Path_73162" data-name="Path 73162" d="M1591.41,795.129a.775.775,0,0,1,.188.879.871.871,0,0,1-1.576,0,.775.775,0,0,1,.188-.879.887.887,0,0,1,1.2,0Z" transform="translate(-1577.229 -773.965)" fill="#bed2fa"/>
                <path id="Path_73163" data-name="Path 73163" d="M1572.73,813.861a.775.775,0,0,1,.188.879.871.871,0,0,1-1.576,0,.775.775,0,0,1,.188-.879A.887.887,0,0,1,1572.73,813.861Z" transform="translate(-1563.894 -787.624)" fill="#bed2fa"/>
                <path id="Path_73164" data-name="Path 73164" d="M1545.48,821.982a.853.853,0,1,1,.852.806.83.83,0,0,1-.852-.806Z" transform="translate(-1545.48 -793.131)" fill="#bed2fa"/>
              </g>
              <g id="Group_55696" data-name="Group 55696" transform="translate(0 1.529)">
                <path id="Path_73165" data-name="Path 73165" d="M1523.34,723.665a.878.878,0,0,0-1.159-.314.784.784,0,0,0-.331,1.1.878.878,0,0,0,1.159.313A.784.784,0,0,0,1523.34,723.665Z" transform="translate(-1513.693 -723.25)" fill="#bed2fa"/>
                <path id="Path_73166" data-name="Path 73166" d="M1503.48,740.776a.886.886,0,0,0-1.071.117.771.771,0,0,0-.088,1.016.879.879,0,0,0,1.037.28.794.794,0,0,0,.493-.907.808.808,0,0,0-.371-.507Z" transform="translate(-1499.718 -735.936)" fill="#bed2fa"/>
                <path id="Path_73167" data-name="Path 73167" d="M1494.45,766.413a.807.807,0,1,0,.852.806.83.83,0,0,0-.852-.806Z" transform="translate(-1493.598 -754.725)" fill="#bed2fa"/>
                <path id="Path_73168" data-name="Path 73168" d="M1501.15,795.129a.775.775,0,0,0-.188.879.871.871,0,0,0,1.576,0,.775.775,0,0,0-.188-.879A.887.887,0,0,0,1501.15,795.129Z" transform="translate(-1498.812 -775.494)" fill="#bed2fa"/>
                <path id="Path_73169" data-name="Path 73169" d="M1519.83,813.861a.775.775,0,0,0-.188.879.871.871,0,0,0,1.576,0,.775.775,0,0,0-.188-.879.887.887,0,0,0-1.2,0Z" transform="translate(-1512.147 -789.154)" fill="#bed2fa"/>
              </g>
            </g>
            <g id="Group_55700" data-name="Group 55700" transform="translate(20.327 8.231)">
              <ellipse id="Ellipse_491" data-name="Ellipse 491" cx="0.852" cy="0.806" rx="0.852" ry="0.806" transform="translate(0 9.259)" fill="#bed2fa"/>
              <g id="Group_55698" data-name="Group 55698" transform="translate(0.735)">
                <rect id="Rectangle_7290" data-name="Rectangle 7290" width="0.232" height="10.064" fill="#bed2fa"/>
              </g>
              <g id="Group_55699" data-name="Group 55699" transform="translate(0.529 5.598)">
                <path id="Rectangle_7291" data-name="Rectangle 7291" d="M0,0,7.023.188l.018.675L.018.675Z" transform="translate(0 4.192) rotate(-38.141)" fill="#bed2fa"/>
              </g>
            </g>
          </g>
          <g id="Group_55711" data-name="Group 55711" transform="translate(383.345 144.008)">
            <g id="Group_55706" data-name="Group 55706" transform="translate(0 128.385)">
              <path id="Rectangle_7292" data-name="Rectangle 7292" d="M5.991,0H207.9a5.835,5.835,0,0,1,5.99,5.666h0a5.835,5.835,0,0,1-5.99,5.666H5.991A5.836,5.836,0,0,1,0,5.667H0A5.836,5.836,0,0,1,5.991,0Z" fill="#93b3f4"/>
              <g id="Group_55703" data-name="Group 55703" transform="translate(183.928 11.34)">
                <g id="Group_55702" data-name="Group 55702" transform="translate(0.007)">
                  <path id="Path_73170" data-name="Path 73170" d="M2818.44,1562.609h-1.527l-11.825-42.349v-.008l-2.688-9.631h0l-3.486-12.486,6.964-.113,2.374,12.2,1.775,9.135c.009.046.021.089.029.131Z" transform="translate(-2798.914 -1498.023)" fill="#fff"/>
                </g>
                <path id="Path_73171" data-name="Path 73171" d="M2808.24,1510.214a17.475,17.475,0,0,0-3.159,10.041l-2.688-9.631h0l-3.486-12.486,6.964-.113Z" transform="translate(-2798.907 -1498.023)" fill="#93b3f4"/>
              </g>
              <g id="Group_55705" data-name="Group 55705" transform="translate(7.657 11.34)">
                <g id="Group_55704" data-name="Group 55704">
                  <path id="Path_73172" data-name="Path 73172" d="M2183.1,1562.609h1.527l11.825-42.349v-.008l2.688-9.631h0l3.486-12.486-6.964-.113-2.373,12.2-1.776,9.135c-.008.046-.02.089-.029.131Z" transform="translate(-2183.1 -1498.023)" fill="#fff"/>
                </g>
                <path id="Path_73173" data-name="Path 73173" d="M2218.71,1510.214a17.482,17.482,0,0,1,3.159,10.041l2.688-9.631h0l3.487-12.486-6.965-.113Z" transform="translate(-2208.515 -1498.023)" fill="#93b3f4"/>
              </g>
            </g>
            <g id="Group_55710" data-name="Group 55710" transform="translate(38.562 0)">
              <path id="Path_73174" data-name="Path 73174" d="M2433.11,1240.569a36.768,36.768,0,0,0-3.387-4.869c-1.014-.913-2.458-3.682-3.121-3.122s.641,2.5.13,3.254-6.994-.647-7.4.216a3.57,3.57,0,0,0,2.219,4.315c2.341.79,8.624,2.124,9.5,3.2S2433.11,1240.569,2433.11,1240.569Z" transform="translate(-2382.514 -1164.678)" fill="#fc9290"/>
              <path id="Path_73175" data-name="Path 73175" d="M2526.44,1145.925s-3.832-1.647-15.8,8.586-20.16,20.932-26.552,21.4-22.9.5-22.9.5l-1.838,3.651s-.31,1.41,9.819,4.458a93.349,93.349,0,0,0,20.434,3.333c8.2-.931,27.84-13.346,30.829-17.068S2526.44,1145.925,2526.44,1145.925Z" transform="translate(-2411.181 -1101.471)" fill="#93b3f4"/>
              <g id="Group_55707" data-name="Group 55707" transform="translate(0 21.056)">
                <path id="Path_73176" data-name="Path 73176" d="M2333.41,1433.825a33.721,33.721,0,0,1-.384,7.431c-1.613,12.224-6.878,31.745-6.878,31.745l-6.6.757c.482-3.452-.892-16.671-2.714-31.32-2.75-22.1-6.53-47.457-6.53-47.457s14.358-11.225,22.819-8.125S2332.42,1425.255,2333.41,1433.825Z" transform="translate(-2304.803 -1297.893)" fill="#ea8888"/>
                <path id="Path_73177" data-name="Path 73177" d="M2349.31,1589.22c-1.613,12.224-6.878,31.745-6.878,31.745l-6.6.757c.482-3.452-.892-16.67-2.714-31.319,2.347.391,8.716,1.166,14.044-.732A7,7,0,0,1,2349.31,1589.22Z" transform="translate(-2321.086 -1445.859)" fill="#bed2fa"/>
                <path id="Path_73178" data-name="Path 73178" d="M2332.34,1081.36a10.1,10.1,0,0,0-7.379,0c-3.9,1.579-6.744,8.3-5,14.578s-4.153,6.383-1.421,11.419c.969,1.785,13.795,3.3,14.232-3.65.271-4.308-3.852-4.521-2.65-9.2S2332.34,1081.36,2332.34,1081.36Z" transform="translate(-2310.16 -1075.005)" fill="#0b0754"/>
                <path id="Path_73179" data-name="Path 73179" d="M2369.1,1429.641a42.1,42.1,0,0,1-.092,9.777c-1.121,12.46-4.7,30.27-4.7,30.27l-6.524,1.427c.249-3.405-1.882-16.23-4.57-30.576-4.179-22.315-9.7-48.319-9.7-48.319s13.6-12.044,22.249-9.44S2367.55,1421.146,2369.1,1429.641Z" transform="translate(-2328.501 -1295.05)" fill="#fc9290"/>
                <path id="Path_73180" data-name="Path 73180" d="M2319.51,1702.228a7.661,7.661,0,0,1-4.553,3.354,7.549,7.549,0,0,0-4.483,2.639,1.585,1.585,0,0,0-.143,1.732,1.769,1.769,0,0,0,1.569.9l15.173-.082a2.238,2.238,0,0,0,1.615-.688,1.992,1.992,0,0,0,.543-1.594c-.12-1.063-.246-2.3-.3-3.249-.125-2.073-2.5-3.935-2.5-3.935a16.034,16.034,0,0,1-2.886,1.264,11.341,11.341,0,0,1-4.035-.344Z" transform="translate(-2304.681 -1527.599)" fill="#9e332e"/>
                <path id="Path_73181" data-name="Path 73181" d="M2303.07,1193.97s-9.915,15.814-11.915,28.708c0,0,4.823,6.155,6.784,1.833S2313.98,1197.054,2303.07,1193.97Z" transform="translate(-2291.131 -1157.636)" fill="#fc9290"/>
                <path id="Path_73182" data-name="Path 73182" d="M2339.38,1067.987a20.317,20.317,0,0,1,12.837-8.128,12.805,12.805,0,0,1,9.181,2.122,11.514,11.514,0,0,1,4.861,7.667c1.039,6.4-.021,14.7-11.062,17.689Z" transform="translate(-2325.55 -1059.719)" fill="#0b0754"/>
                <path id="Path_73183" data-name="Path 73183" d="M2346.46,1152.1l12.5,7.021,3.158-8.324a24.84,24.84,0,0,1-1.87-7.882,30.611,30.611,0,0,1,.2-6.992l-10.866,4.465a17.93,17.93,0,0,1,.266,2.3,15.747,15.747,0,0,1-.54,5.315,7.373,7.373,0,0,1-2.848,4.093Z" transform="translate(-2330.606 -1115.305)" fill="#fc9290"/>
                <path id="Path_73184" data-name="Path 73184" d="M2356.42,1166.236c5.994.209,10.938-5.09,10.938-5.09l-10.4-.225a15.74,15.74,0,0,1-.538,5.315Z" transform="translate(-2337.711 -1133.533)" fill="#ea8888"/>
                <path id="Path_73185" data-name="Path 73185" d="M2337.57,1106.509s11.736,3.7,16.457-5.031c5.1-9.423.7-16.775-3.326-17.5-8.019-1.436-12.911,1.2-14.538,4.193S2331.09,1104.523,2337.57,1106.509Z" transform="translate(-2321.555 -1077.131)" fill="#fc9290"/>
                <path id="Path_73186" data-name="Path 73186" d="M2349.92,1145.941s-.578,1.135-3.682.291c0,0-2.607-.708-2.218-2.006a9.054,9.054,0,0,1,5.9,1.715Z" transform="translate(-2328.837 -1121.34)" fill="#fff"/>
                <path id="Path_73187" data-name="Path 73187" d="M2342.82,1281.054c-3.392,3.065-28.441,9.4-42.559,4.846-2.529-.816,1.518-74.656,3.931-88.919a9.263,9.263,0,0,1,8.093-7.483q1.05-.142,2.281-.253c-.175,1.754.459,3.405,3.689,4,4.3.795,8.363-1.769,10.453-3.554a41.506,41.506,0,0,1,8,1.962,6.6,6.6,0,0,1,4.251,7.019l-.808,5.628-2.571,17.938a22.449,22.449,0,0,0,.055,6.787c1.1,6.818,2.836,23.426,4,36.059C2342.46,1273.978,2343,1280.9,2342.82,1281.054Z" transform="translate(-2297.063 -1154.192)" fill="#fa7269"/>
                <path id="Path_73188" data-name="Path 73188" d="M2384.41,1294.459c-.372-.407-24.125-26.624-24.982-40.571-.859-14.057,11.917-24.329,11.917-24.329,5.091-.318,8.852,1.259,11.578,4.113l-2.571,17.938a22.457,22.457,0,0,0,.055,6.787C2381.5,1265.21,2383.24,1281.821,2384.41,1294.459Z" transform="translate(-2339.831 -1183.556)" fill="#ed6966"/>
                <path id="Path_73189" data-name="Path 73189" d="M2346.27,1076.313s-1.112,10.414,9.332,14.1c4.153,1.467,6.315-14.439-2.363-17.614s-17.235.6-18.258,6.149-.244,6.71-.244,6.71S2338.8,1075.1,2346.27,1076.313Z" transform="translate(-2322.039 -1068.431)" fill="#0b0754"/>
                <path id="Path_73190" data-name="Path 73190" d="M2357.59,1205.045s-4.791,17.92-4.977,25.049c0,0-10.512,17.367-11.129,18.6s3.794,2.924,3.794,2.924,13.188-13.3,15.73-18.9,11.559-23.772,7.951-29.2S2357.59,1205.045,2357.59,1205.045Z" transform="translate(-2327.012 -1163.089)" fill="#fc9290"/>
                <path id="Path_73191" data-name="Path 73191" d="M2291.09,1299.959a30.84,30.84,0,0,0,8.243,21.825s2.507-2.855,2.191-3.74-3.911-14.492-6.536-16.427S2291.09,1299.959,2291.09,1299.959Z" transform="translate(-2291.063 -1234.914)" fill="#fc9290"/>
                <path id="Path_73192" data-name="Path 73192" d="M2326.06,1375.92s-5.878-.041-6.207,1.267a3.945,3.945,0,0,0,1.754,3.493,4.456,4.456,0,0,0,4.057.479c4.3-1.426,4.19-2.317,4.19-2.317Z" transform="translate(-2311.589 -1290.319)" fill="#fc9290"/>
                <path id="Path_73193" data-name="Path 73193" d="M2321.99,1366.78s4.722,2.064,3.118,4.264-4.813.883-5.309-.524S2321.99,1366.78,2321.99,1366.78Z" transform="translate(-2311.531 -1283.653)" fill="#fc9290"/>
                <path id="Path_73194" data-name="Path 73194" d="M2385.61,1213.8a22.313,22.313,0,0,0,15.669,4.584s4.684-15.7-2.827-17.63S2384.73,1208.133,2385.61,1213.8Z" transform="translate(-2358.489 -1162.392)" fill="#fa7269"/>
                <path id="Path_73195" data-name="Path 73195" d="M2307.92,1204.19l-5.434,8.789s.7,4.078,4.765,4.484S2307.92,1204.19,2307.92,1204.19Z" transform="translate(-2299.219 -1165.089)" fill="#fa7269"/>
                <path id="Path_73196" data-name="Path 73196" d="M2419.9,1081.445a9.065,9.065,0,0,1,7.379,0c3.9,1.777,6.744,9.346,5,16.415s4.153,7.189,1.42,12.857c-.969,2.01-13.794,3.721-14.232-4.109-.271-4.851,3.852-5.091,2.649-10.362S2419.9,1081.445,2419.9,1081.445Z" transform="translate(-2382.704 -1075.004)" fill="#0b0754"/>
                <path id="Path_73197" data-name="Path 73197" d="M2393.2,1592.95c-1.121,12.46-4.7,30.27-4.7,30.27l-6.524,1.427c.249-3.405-1.882-16.23-4.571-30.576A43.805,43.805,0,0,0,2393.2,1592.95Z" transform="translate(-2352.696 -1448.581)" fill="#fff"/>
                <path id="Path_73198" data-name="Path 73198" d="M2369.36,1702.228a7.661,7.661,0,0,1-4.554,3.354,7.547,7.547,0,0,0-4.482,2.639,1.585,1.585,0,0,0-.142,1.732,1.77,1.77,0,0,0,1.569.9l15.174-.081a2.237,2.237,0,0,0,1.614-.688,1.992,1.992,0,0,0,.543-1.594c-.119-1.063-.245-2.3-.3-3.249-.125-2.073-2.5-3.935-2.5-3.935a15.985,15.985,0,0,1-2.886,1.264,11.343,11.343,0,0,1-4.036-.344Z" transform="translate(-2340.259 -1527.599)" fill="#a83f3f"/>
              </g>
              <path id="Path_73199" data-name="Path 73199" d="M2685.6,994.44s-.221-7.378,10.062-8.823,13.124.827,14.873,3.311,5.027,12.61,4.7,16.642-12.057,9.016-11.865,11.368S2685.6,994.44,2685.6,994.44Z" transform="translate(-2572.671 -984.311)" fill="#0b0754"/>
              <path id="Path_73200" data-name="Path 73200" d="M2463.77,1670.026c.206,2.459-3.42,3.015-7.613,3.16s-2.938.974-8.694,1.886-8.037-.6-8.442-1.341c-.361-.656,2.323-1.64,5.184-2.756.36-.139.72-.284,1.081-.427,3.22-1.292,5.055-3.987,7.586-6.475,2.4-2.356,4.749-9.967,4.749-9.967l7.825-1.479s-2.286,6.848-3.087,9.774c-.471,1.721.162,3.659.728,5.135a9.249,9.249,0,0,1,.683,2.491Z" transform="translate(-2396.65 -1471.042)" fill="#fc9290"/>
              <path id="Path_73201" data-name="Path 73201" d="M2456.16,1713.337c-4.193.146-2.938.974-8.694,1.886s-8.037-.6-8.442-1.341c-.361-.656,2.323-1.641,5.184-2.756l.044.046a17.255,17.255,0,0,0,8.7.206c3.812-.929,7.515-3.027,10.141-3.689a9.257,9.257,0,0,1,.684,2.493C2463.98,1712.637,2460.35,1713.2,2456.16,1713.337Z" transform="translate(-2396.65 -1511.193)" fill="#e75755"/>
              <path id="Path_73202" data-name="Path 73202" d="M2556.98,1358.692s-51.934,2.578-60.834,9.533-10.945,75.521-10.945,75.521c1.26,1.34,2.239,1.356,4.343,1.3a31.1,31.1,0,0,0,6.2-1.469s12.816-33.118,13.36-40.9,2.98-20.914,6.536-21.53,45.162,5.691,50.387-6.377-1.864-22.527-1.864-22.527Z" transform="translate(-2429.636 -1251.999)" fill="#030231"/>
              <path id="Path_73203" data-name="Path 73203" d="M2700.14,1218.563c-2.232,1.413-8,2.2-14.7,2.422-11.985.412-26.94-.939-29.884-3.569a4.638,4.638,0,0,1-1.242-3.231c-.324-4.351,1.872-11.507,3.347-17.43.957-3.848,1.61-7.172,1.075-8.872-1.626-5.172-6.677-15.712-7.114-19.176s3.934-22.024,9.976-24.321,29.363,0,29.363,0c9.11,1.749,9.493,20.122,6.468,35.757-.079.4-.157.8-.239,1.2C2693.91,1197.222,2706.37,1214.618,2700.14,1218.563Z" transform="translate(-2548.396 -1099.673)" fill="#93b3f4"/>
              <g id="Group_55708" data-name="Group 55708" transform="translate(109.246 8.687)">
                <path id="Path_73204" data-name="Path 73204" d="M2700.49,1110.8c.164,1.007,3.08,2.642,9.313,1.088,5.972-1.49,6.69-3.33,6.688-4.541,0-1.438-2.6-3.376-2.562-12.225l-.716.133-12.042,2.255s.274,3.585.282,6.962C2701.46,1107.314,2700.22,1109.13,2700.49,1110.8Z" transform="translate(-2692.513 -1073.184)" fill="#fc9290"/>
                <path id="Path_73205" data-name="Path 73205" d="M2702.97,1097.871s.274,3.585.282,6.961c6.739-.18,10.3-5.995,11.76-9.217Z" transform="translate(-2694.309 -1073.544)" fill="#ea8888"/>
                <path id="Path_73206" data-name="Path 73206" d="M2681.86,1047.226s15.943.249,15.953-9.145,2.076-15.689-8.1-16.245-12.161,3.027-12.97,6.161S2677.72,1046.914,2681.86,1047.226Z" transform="translate(-2675.458 -1019.695)" fill="#fc9290"/>
                <path id="Path_73207" data-name="Path 73207" d="M2697.17,1016s4.365,11.021,11.064,12.65,9.6-.068,9.6-.068a17.711,17.711,0,0,1-6.2-10.6S2700.46,1010.751,2697.17,1016Z" transform="translate(-2690.17 -1014.09)" fill="#0b0754"/>
                <path id="Path_73208" data-name="Path 73208" d="M2680.81,1019.607s-3.26,2.459-4.054,4.853-1.152,7.317-2.67,7.149c0,0-3.289-7.491.407-11.73C2678.42,1015.379,2680.81,1019.607,2680.81,1019.607Z" transform="translate(-2672.738 -1016.801)" fill="#0b0754"/>
                <path id="Path_73209" data-name="Path 73209" d="M2692.54,1092.676s-.3,1.193-3.436,1.009c0,0-2.635-.153-2.554-1.465A8.921,8.921,0,0,1,2692.54,1092.676Z" transform="translate(-2682.594 -1070.839)" fill="#fff"/>
              </g>
              <path id="Path_73210" data-name="Path 73210" d="M2582.96,1664.5c-.09,2.468-3.759,2.629-7.942,2.325s-3.035.652-8.864.946-7.913-1.459-8.227-2.237c-.28-.69,2.5-1.381,5.48-2.184.375-.095.75-.2,1.125-.308,3.354-.939,5.5-3.42,8.312-5.621,2.665-2.081-2.409-13.005-2.409-13.005l7.554-3.05s1,7.675,2.458,14.415c.376,1.741,1.746,4.646,2.131,6.173A9.167,9.167,0,0,1,2582.96,1664.5Z" transform="translate(-2481.528 -1462.827)" fill="#fc9290"/>
              <path id="Path_73211" data-name="Path 73211" d="M2706.85,1295.26c-2.232,1.414-8,2.2-14.7,2.422-11.054-2.378-23.639-5.148-31.126-6.8-.324-4.351,1.872-11.507,3.347-17.43,8.729,2.521,21.721-6.068,26.088-9.459,4.589-3.566,4.445-15.449,4.445-15.449l9.234,8.3c-.079.4-.157.8-.239,1.2C2700.62,1273.92,2713.07,1291.316,2706.85,1295.26Z" transform="translate(-2555.102 -1176.37)" fill="#6d89cf"/>
              <path id="Path_73212" data-name="Path 73212" d="M2575.02,1722.272c-4.184-.3-3.035.652-8.864.946s-7.913-1.459-8.227-2.236c-.28-.69,2.5-1.381,5.48-2.184l.038.051a17.2,17.2,0,0,0,8.616,1.135c3.9-.516,7.829-2.207,10.518-2.582a9.17,9.17,0,0,1,.381,2.554C2582.87,1722.413,2579.2,1722.574,2575.02,1722.272Z" transform="translate(-2481.528 -1518.274)" fill="#e75755"/>
              <path id="Path_73213" data-name="Path 73213" d="M2618.36,1382.415c-13.1-.958-52.438.125-60.24,5.05-9.6,6.062,13.55,75.508,13.55,75.508h7.431s4.321-40.326,1.639-48.376c-2.478-7.438-4.1-10.1-.492-10.372s48.014,7.109,52.4-5.257c3.422-9.658-.41-18.919-.41-18.919S2630.45,1383.3,2618.36,1382.415Z" transform="translate(-2480.014 -1272.272)" fill="#0b0754"/>
              <path id="Path_73214" data-name="Path 73214" d="M2718.28,1147.068s9.125.732,9.834,7.554c.54,5.18,4.508,41.923,1.65,45.122-8.043,8.993-34.861,10.9-38.809,12.263l-1.086-4.257s28.629-13.644,28.192-16.743S2709.53,1145.839,2718.28,1147.068Z" transform="translate(-2575.719 -1102.354)" fill="#93b3f4"/>
              <path id="Path_73215" data-name="Path 73215" d="M2755.31,987.027s-.655-3.935,5.115-4.951,5.877,10.577,6.5,13.372-.923,4.469-3.123,4.635S2755.31,987.027,2755.31,987.027Z" transform="translate(-2622.406 -982.013)" fill="#0b0754"/>
              <g id="Group_55709" data-name="Group 55709" transform="translate(95.996 102.078)">
                <path id="Path_73216" data-name="Path 73216" d="M2644.29,1365.85s-8.154-2.182-10.1-1.672-8.6,4.678-7.661,5.81,6.8-.678,9.5-.335,4.784,1.6,6.726,1.33a23.582,23.582,0,0,0,3.973-.994Z" transform="translate(-2626.439 -1362.719)" fill="#fc9290"/>
                <path id="Path_73217" data-name="Path 73217" d="M2674.15,1362.131a30.9,30.9,0,0,1-5.124-3.042.328.328,0,0,0-.264-.089.319.319,0,0,0-.236.143c-.3.454-.589,1.329.81,2.2a7.9,7.9,0,0,0,4.814.788Z" transform="translate(-2656.305 -1358.998)" fill="#fc9290"/>
              </g>
            </g>
          </g>
          <g id="Group_55716" data-name="Group 55716" transform="translate(47.453 264.629)">
            <path id="Path_73218" data-name="Path 73218" d="M1063.34,1428.8v2.092c0,.732-.251,1.331-.557,1.331h-80.7c-.306,0-.557-.6-.557-1.331V1428.8c0-.731.251-1.33.557-1.33h80.7C1063.09,1427.47,1063.34,1428.066,1063.34,1428.8Z" transform="translate(-981.526 -1427.474)" fill="#93b3f4"/>
            <path id="Path_73219" data-name="Path 73219" d="M1105.05,1428.8v2.092c0,.732-.23,1.331-.511,1.331H1040.47c-.281,0-.511-.6-.511-1.331V1428.8c0-.731.23-1.33.511-1.33h64.066C1104.82,1427.47,1105.05,1428.066,1105.05,1428.8Z" transform="translate(-1023.229 -1427.474)" fill="#bed2fa"/>
            <rect id="Rectangle_7293" data-name="Rectangle 7293" width="57.292" height="78.991" transform="translate(4.102 4.749)" fill="#bed2fa"/>
            <rect id="Rectangle_7294" data-name="Rectangle 7294" width="57.292" height="78.991" transform="translate(20.157 4.749)" fill="#fff"/>
            <g id="Group_55715" data-name="Group 55715" transform="translate(23.234 6.98)">
              <g id="Group_55712" data-name="Group 55712">
                <path id="Path_73220" data-name="Path 73220" d="M1113.82,1525.663h-51.134v-72.4h51.134Zm-50.582-.523h50.03v-71.355h-50.03Z" transform="translate(-1062.686 -1453.264)" fill="#bed2fa"/>
              </g>
              <g id="Group_55713" data-name="Group 55713" transform="translate(0.279 23.95)">
                <rect id="Rectangle_7295" data-name="Rectangle 7295" width="50.582" height="0.522" fill="#bed2fa"/>
              </g>
              <g id="Group_55714" data-name="Group 55714" transform="translate(0.279 48.367)">
                <rect id="Rectangle_7296" data-name="Rectangle 7296" width="50.582" height="0.522" fill="#bed2fa"/>
              </g>
              <path id="Path_73221" data-name="Path 73221" d="M1144.65,1466.291h-9.386a.81.81,0,0,1-.828-.783h0a.808.808,0,0,1,.828-.783h9.386a.81.81,0,0,1,.828.783h0A.81.81,0,0,1,1144.65,1466.291Z" transform="translate(-1113.893 -1461.619)" fill="#bed2fa"/>
              <path id="Path_73222" data-name="Path 73222" d="M1144.65,1554.471h-9.386a.81.81,0,0,1-.828-.783h0a.808.808,0,0,1,.828-.783h9.386a.81.81,0,0,1,.828.783h0a.81.81,0,0,1-.828.783Z" transform="translate(-1113.893 -1525.924)" fill="#bed2fa"/>
              <path id="Path_73223" data-name="Path 73223" d="M1144.65,1646.39h-9.386a.81.81,0,0,1-.828-.783h0a.81.81,0,0,1,.828-.783h9.386a.81.81,0,0,1,.828.783h0A.809.809,0,0,1,1144.65,1646.39Z" transform="translate(-1113.893 -1592.957)" fill="#bed2fa"/>
            </g>
          </g>
          <path id="Rectangle_7297" data-name="Rectangle 7297" d="M.861,0H649.138A.84.84,0,0,1,650,.815h0a.841.841,0,0,1-.862.816H.861A.84.84,0,0,1,0,.816H0A.84.84,0,0,1,.861,0Z" transform="translate(0 348.369)" fill="#646871" opacity="0.18"/>
          <g id="Group_55717" data-name="Group 55717" transform="translate(83.536 233.964)">
            <path id="Path_73224" data-name="Path 73224" d="M1122.05,1355.1v13.587h-14.481v-13.629a3.318,3.318,0,0,1,.021-.391,4.205,4.205,0,0,1,2.673-3.457,2.783,2.783,0,0,0,1.832-2.387l.106-1.963h5.316l.033,1.957a2.683,2.683,0,0,0,1.774,2.4,4.252,4.252,0,0,1,2.7,3.454A3.594,3.594,0,0,1,1122.05,1355.1Z" transform="translate(-1107.569 -1346.185)" fill="#fff"/>
            <path id="Path_73225" data-name="Path 73225" d="M1128.19,1345.912h-6.2l.165-1.532h5.873Z" transform="translate(-1117.859 -1344.38)" fill="#bed2fa"/>
            <path id="Path_73226" data-name="Path 73226" d="M1122.05,1376.125v8.761h-14.481v-8.809a3.314,3.314,0,0,1,.021-.391h14.435a4.04,4.04,0,0,1,.025.438Z" transform="translate(-1107.569 -1367.213)" fill="#fff"/>
          </g>
          <g id="Group_55718" data-name="Group 55718" transform="translate(101.812 244.141)">
            <path id="Path_73227" data-name="Path 73227" d="M1179.52,1386.986v7.6h-8.1v-7.624a1.883,1.883,0,0,1,.012-.219,2.353,2.353,0,0,1,1.5-1.933,1.557,1.557,0,0,0,1.025-1.336l.06-1.1h2.974l.019,1.094a1.5,1.5,0,0,0,.992,1.34,2.383,2.383,0,0,1,1.511,1.932A2.279,2.279,0,0,1,1179.52,1386.986Z" transform="translate(-1171.42 -1382.004)" fill="#fff"/>
            <path id="Path_73228" data-name="Path 73228" d="M1182.95,1381.851h-3.469l.092-.857h3.285Z" transform="translate(-1177.176 -1380.994)" fill="#bed2fa"/>
            <path id="Path_73229" data-name="Path 73229" d="M1179.52,1398.746v4.9h-8.1v-4.925a1.885,1.885,0,0,1,.012-.22h8.075A2.262,2.262,0,0,1,1179.52,1398.746Z" transform="translate(-1171.42 -1393.766)" fill="#fff"/>
          </g>
        </g>
      </g>
    </g>
  </g>
</svg>
